<svg width="21" height="15" viewBox="0 0 21 15" fill="none" xmlns="http://www.w3.org/2000/svg">
<path d="M19.796 2.54597L7.79596 14.546C7.69144 14.6509 7.56725 14.7341 7.4305 14.7909C7.29376 14.8476 7.14715 14.8769 6.99908 14.8769C6.85102 14.8769 6.70441 14.8476 6.56766 14.7909C6.43092 14.7341 6.30672 14.6509 6.20221 14.546L0.952208 9.29598C0.847561 9.19133 0.76455 9.06709 0.707915 8.93037C0.651281 8.79364 0.622131 8.64709 0.622131 8.4991C0.622131 8.35111 0.651281 8.20456 0.707915 8.06783C0.76455 7.93111 0.847561 7.80687 0.952208 7.70223C1.05685 7.59758 1.18109 7.51457 1.31782 7.45793C1.45455 7.4013 1.60109 7.37215 1.74908 7.37215C1.89708 7.37215 2.04362 7.4013 2.18035 7.45793C2.31708 7.51457 2.44131 7.59758 2.54596 7.70223L7.00002 12.1563L18.2041 0.9541C18.4154 0.742755 18.7021 0.624023 19.001 0.624023C19.2998 0.624023 19.5865 0.742755 19.7978 0.9541C20.0092 1.16544 20.1279 1.45209 20.1279 1.75098C20.1279 2.04986 20.0092 2.33651 19.7978 2.54785L19.796 2.54597Z" fill="#F7B733"/>
</svg>
