<svg width="27" height="24" viewBox="0 0 27 24" fill="none" xmlns="http://www.w3.org/2000/svg">
<path d="M27 15C27 15.2652 26.8946 15.5196 26.7071 15.7071C26.5195 15.8946 26.2652 16 26 16H24V18C24 18.2652 23.8946 18.5196 23.7071 18.7071C23.5195 18.8946 23.2652 19 23 19C22.7348 19 22.4804 18.8946 22.2929 18.7071C22.1053 18.5196 22 18.2652 22 18V16H20C19.7348 16 19.4804 15.8946 19.2929 15.7071C19.1053 15.5196 19 15.2652 19 15C19 14.7348 19.1053 14.4804 19.2929 14.2929C19.4804 14.1054 19.7348 14 20 14H22V12C22 11.7348 22.1053 11.4804 22.2929 11.2929C22.4804 11.1054 22.7348 11 23 11C23.2652 11 23.5195 11.1054 23.7071 11.2929C23.8946 11.4804 24 11.7348 24 12V14H26C26.2652 14 26.5195 14.1054 26.7071 14.2929C26.8946 14.4804 27 14.7348 27 15ZM2.99997 5H4.99997V7C4.99997 7.26522 5.10533 7.51957 5.29286 7.70711C5.4804 7.89464 5.73476 8 5.99997 8C6.26519 8 6.51954 7.89464 6.70708 7.70711C6.89461 7.51957 6.99997 7.26522 6.99997 7V5H8.99997C9.26519 5 9.51954 4.89464 9.70708 4.70711C9.89461 4.51957 9.99997 4.26522 9.99997 4C9.99997 3.73478 9.89461 3.48043 9.70708 3.29289C9.51954 3.10536 9.26519 3 8.99997 3H6.99997V1C6.99997 0.734784 6.89461 0.48043 6.70708 0.292893C6.51954 0.105357 6.26519 0 5.99997 0C5.73476 0 5.4804 0.105357 5.29286 0.292893C5.10533 0.48043 4.99997 0.734784 4.99997 1V3H2.99997C2.73475 3 2.4804 3.10536 2.29286 3.29289C2.10533 3.48043 1.99997 3.73478 1.99997 4C1.99997 4.26522 2.10533 4.51957 2.29286 4.70711C2.4804 4.89464 2.73475 5 2.99997 5ZM19 20H18V19C18 18.7348 17.8946 18.4804 17.7071 18.2929C17.5195 18.1054 17.2652 18 17 18C16.7348 18 16.4804 18.1054 16.2929 18.2929C16.1053 18.4804 16 18.7348 16 19V20H15C14.7348 20 14.4804 20.1054 14.2929 20.2929C14.1053 20.4804 14 20.7348 14 21C14 21.2652 14.1053 21.5196 14.2929 21.7071C14.4804 21.8946 14.7348 22 15 22H16V23C16 23.2652 16.1053 23.5196 16.2929 23.7071C16.4804 23.8946 16.7348 24 17 24C17.2652 24 17.5195 23.8946 17.7071 23.7071C17.8946 23.5196 18 23.2652 18 23V22H19C19.2652 22 19.5195 21.8946 19.7071 21.7071C19.8946 21.5196 20 21.2652 20 21C20 20.7348 19.8946 20.4804 19.7071 20.2929C19.5195 20.1054 19.2652 20 19 20ZM23.4137 6L5.99997 23.4137C5.62494 23.7885 5.11643 23.9991 4.58622 23.9991C4.05602 23.9991 3.54751 23.7885 3.17247 23.4137L0.584971 20.8288C0.399206 20.643 0.251846 20.4225 0.151308 20.1798C0.0507701 19.9372 -0.000976562 19.6771 -0.000976562 19.4144C-0.000976563 19.1517 0.0507701 18.8916 0.151308 18.6489C0.251846 18.4062 0.399206 18.1857 0.584971 18L18 0.58625C18.1857 0.400484 18.4062 0.253125 18.6489 0.152587C18.8916 0.052049 19.1517 0.000302315 19.4143 0.000302315C19.677 0.000302315 19.9371 0.052049 20.1798 0.152587C20.4225 0.253125 20.643 0.400484 20.8287 0.58625L23.4137 3.17125C23.5995 3.35697 23.7468 3.57747 23.8474 3.82015C23.9479 4.06283 23.9997 4.32294 23.9997 4.58562C23.9997 4.84831 23.9479 5.10842 23.8474 5.3511C23.7468 5.59378 23.5995 5.81428 23.4137 6ZM22 4.58625L19.4137 2L15.4137 6L18 8.58625L22 4.58625Z" fill="url(#paint0_linear_4114_14)"/>
<defs>
<linearGradient id="paint0_linear_4114_14" x1="-0.000976563" y1="12" x2="27" y2="12" gradientUnits="userSpaceOnUse">
<stop stop-color="#FC4A1A"/>
<stop offset="1" stop-color="#F7B733"/>
</linearGradient>
</defs>
</svg>
