<svg width="32" height="32" viewBox="0 0 32 32" fill="none" xmlns="http://www.w3.org/2000/svg">
<path d="M11.3826 8.58132C11.3309 8.52962 11.2686 8.48988 11.1999 8.4649C11.1312 8.43992 11.0578 8.43031 10.985 8.43675C10.9122 8.44319 10.8417 8.46551 10.7784 8.50215C10.7151 8.53879 10.6607 8.58886 10.6189 8.64882C9.5641 10.1542 8.99887 11.9481 9.00013 13.7863C9.00105 14.1801 9.02735 14.5734 9.07888 14.9638L0.39013 26.8138C0.105736 27.1985 -0.0306888 27.6726 0.00580645 28.1496C0.0423017 28.6265 0.249278 29.0744 0.58888 29.4113L2.37513 31.1976C2.71202 31.5372 3.15991 31.7441 3.63687 31.7806C4.11383 31.8171 4.58799 31.6807 4.97263 31.3963L16.8239 22.7051C17.2138 22.7574 17.6067 22.7845 18.0001 22.7863C19.8376 22.7881 21.631 22.2237 23.1364 21.1701C23.1963 21.1283 23.2464 21.0738 23.283 21.0105C23.3197 20.9473 23.342 20.8768 23.3484 20.804C23.3549 20.7311 23.3453 20.6578 23.3203 20.5891C23.2953 20.5204 23.2556 20.458 23.2039 20.4063L11.3826 8.58132ZM11.7089 21.4913L9.70888 23.4913C9.61695 23.5881 9.50657 23.6655 9.38426 23.7189C9.26194 23.7723 9.13017 23.8008 8.9967 23.8025C8.86324 23.8042 8.73078 23.7791 8.60714 23.7289C8.4835 23.6786 8.37118 23.604 8.2768 23.5097C8.18241 23.4153 8.10788 23.3029 8.05759 23.1793C8.0073 23.0557 7.98227 22.9232 7.98398 22.7897C7.98569 22.6563 8.0141 22.5245 8.06754 22.4022C8.12098 22.2799 8.19836 22.1695 8.29513 22.0776L10.2951 20.0776C10.4842 19.8979 10.7359 19.7993 10.9967 19.8026C11.2575 19.806 11.5066 19.911 11.691 20.0954C11.8754 20.2798 11.9805 20.529 11.9838 20.7897C11.9872 21.0505 11.8885 21.3023 11.7089 21.4913ZM25.3839 18.9213C25.3421 18.9815 25.2876 19.0317 25.2242 19.0685C25.1608 19.1053 25.0902 19.1277 25.0172 19.1341C24.9442 19.1406 24.8707 19.1309 24.8019 19.1058C24.733 19.0807 24.6706 19.0407 24.6189 18.9888L12.7976 7.16757C12.7457 7.11588 12.7058 7.05341 12.6807 6.98458C12.6556 6.91576 12.6459 6.84225 12.6523 6.76927C12.6588 6.69629 12.6812 6.62561 12.7179 6.56225C12.7547 6.49888 12.805 6.44437 12.8651 6.40257C14.5966 5.19438 16.6981 4.63405 18.8012 4.81978C20.9044 5.00551 22.8751 5.92546 24.368 7.4184C25.861 8.91135 26.7809 10.8821 26.9667 12.9852C27.1524 15.0884 26.5921 17.1898 25.3839 18.9213Z" fill="url(#paint0_linear_2230_432)"/>
<defs>
<linearGradient id="paint0_linear_2230_432" x1="0" y1="18.2857" x2="27.0015" y2="18.2857" gradientUnits="userSpaceOnUse">
<stop stop-color="#FC4A1A"/>
<stop offset="1" stop-color="#F7B733"/>
</linearGradient>
</defs>
</svg>
