<svg width="32" height="32" viewBox="0 0 32 32" fill="none" xmlns="http://www.w3.org/2000/svg">
<path d="M28.115 2.71142C27.9958 2.61694 27.8564 2.55131 27.7076 2.51965C27.5589 2.48799 27.4048 2.49117 27.2575 2.52892L11.2575 6.52892C11.0414 6.58295 10.8495 6.70759 10.7122 6.88309C10.575 7.05859 10.5003 7.27489 10.5 7.49767V21.2602C9.66571 20.7027 8.66904 20.4401 7.66838 20.5141C6.66772 20.588 5.72047 20.9943 4.97718 21.6683C4.23388 22.3423 3.73717 23.2454 3.56598 24.2341C3.39479 25.2228 3.55895 26.2403 4.03236 27.125C4.50577 28.0097 5.26128 28.7108 6.17882 29.1168C7.09637 29.5229 8.12331 29.6107 9.09646 29.3662C10.0696 29.1217 10.9331 28.559 11.5498 27.7675C12.1665 26.976 12.5009 26.0011 12.5 24.9977V13.2789L26.5 9.77892V17.2602C25.6657 16.7027 24.669 16.4401 23.6684 16.5141C22.6677 16.588 21.7205 16.9943 20.9772 17.6683C20.2339 18.3423 19.7372 19.2454 19.566 20.2341C19.3948 21.2228 19.5589 22.2403 20.0324 23.125C20.5058 24.0097 21.2613 24.7108 22.1788 25.1168C23.0964 25.5229 24.1233 25.6107 25.0965 25.3662C26.0696 25.1217 26.9331 24.559 27.5498 23.7675C28.1665 22.976 28.5009 22.0011 28.5 20.9977V3.49767C28.4997 3.346 28.4648 3.19639 28.3981 3.06018C28.3314 2.92396 28.2346 2.8047 28.115 2.71142Z" fill="url(#paint0_linear_2230_438)"/>
<defs>
<linearGradient id="paint0_linear_2230_438" x1="3.5" y1="15.9999" x2="28.5" y2="15.9999" gradientUnits="userSpaceOnUse">
<stop stop-color="#FC4A1A"/>
<stop offset="1" stop-color="#F7B733"/>
</linearGradient>
</defs>
</svg>
