<svg width="32" height="32" viewBox="0 0 32 32" fill="none" xmlns="http://www.w3.org/2000/svg">
<path d="M8.01489 17.4781C8.01828 17.5459 8.00786 17.6136 7.98425 17.6771C7.96065 17.7407 7.92436 17.7988 7.87759 17.8479C7.83081 17.8971 7.77454 17.9361 7.71219 17.9628C7.64984 17.9895 7.58271 18.0032 7.51489 18.0031H1.99989C1.77419 18.0035 1.555 17.9274 1.37798 17.7874C1.20096 17.6474 1.07652 17.4516 1.02489 17.2319C0.992743 17.0815 0.994225 16.9258 1.02923 16.7761C1.06424 16.6263 1.13191 16.4862 1.22739 16.3656C2.10965 15.1956 3.28025 14.2744 4.62489 13.6919C4.03455 13.1536 3.58177 12.4818 3.30449 11.7325C3.0272 10.9833 2.93347 10.1786 3.03116 9.38568C3.12884 8.5928 3.4151 7.83486 3.86594 7.17535C4.31679 6.51584 4.9191 5.97396 5.62243 5.5951C6.32576 5.21623 7.10963 5.01142 7.9084 4.9978C8.70717 4.98418 9.49757 5.16216 10.2134 5.51682C10.9292 5.87149 11.5497 6.39252 12.0227 7.03628C12.4958 7.68003 12.8077 8.42777 12.9324 9.21687C12.9485 9.32298 12.9295 9.43145 12.8783 9.52577C12.827 9.62009 12.7464 9.69509 12.6486 9.73937C11.2616 10.3806 10.087 11.4052 9.26327 12.6922C8.43957 13.9793 8.0012 15.4751 7.99989 17.0031C7.99989 17.1631 7.99989 17.3206 8.01489 17.4781ZM30.7649 16.3644C29.8847 15.1957 28.7167 14.275 27.3749 13.6919C27.9652 13.1536 28.418 12.4818 28.6953 11.7325C28.9726 10.9833 29.0663 10.1786 28.9686 9.38568C28.8709 8.5928 28.5847 7.83486 28.1338 7.17535C27.683 6.51584 27.0807 5.97396 26.3774 5.5951C25.674 5.21623 24.8901 5.01142 24.0914 4.9978C23.2926 4.98418 22.5022 5.16216 21.7864 5.51682C21.0705 5.87149 20.4501 6.39252 19.977 7.03628C19.504 7.68003 19.192 8.42777 19.0674 9.21687C19.0513 9.32298 19.0703 9.43145 19.1215 9.52577C19.1727 9.62009 19.2534 9.69509 19.3511 9.73937C20.7382 10.3806 21.9128 11.4052 22.7365 12.6922C23.5602 13.9793 23.9986 15.4751 23.9999 17.0031C23.9999 17.1631 23.9999 17.3206 23.9849 17.4781C23.9815 17.5459 23.9919 17.6136 24.0155 17.6771C24.0391 17.7407 24.0754 17.7988 24.1222 17.8479C24.169 17.8971 24.2252 17.9361 24.2876 17.9628C24.3499 17.9895 24.4171 18.0032 24.4849 18.0031H29.9999C30.2256 18.0035 30.4448 17.9274 30.6218 17.7874C30.7988 17.6474 30.9233 17.4516 30.9749 17.2319C31.0072 17.0812 31.0057 16.9252 30.9705 16.7752C30.9353 16.6252 30.8672 16.4849 30.7711 16.3644H30.7649ZM19.6399 21.7619C20.6356 20.9993 21.3673 19.944 21.7322 18.7441C22.0971 17.5442 22.0768 16.2601 21.6742 15.0724C21.2717 13.8846 20.507 12.8528 19.4878 12.1221C18.4685 11.3913 17.2459 10.9983 15.9918 10.9983C14.7376 10.9983 13.515 11.3913 12.4958 12.1221C11.4765 12.8528 10.7119 13.8846 10.3093 15.0724C9.90671 16.2601 9.88645 17.5442 10.2513 18.7441C10.6162 19.944 11.348 20.9993 12.3436 21.7619C10.5768 22.5274 9.10147 23.8385 8.13364 25.5031C8.04586 25.6552 7.99966 25.8276 7.99967 26.0032C7.99968 26.1787 8.0459 26.3512 8.1337 26.5032C8.22149 26.6552 8.34776 26.7815 8.49981 26.8692C8.65186 26.957 8.82434 27.0032 8.99989 27.0031H22.9999C23.1754 27.0032 23.3479 26.957 23.5 26.8692C23.652 26.7815 23.7783 26.6552 23.8661 26.5032C23.9539 26.3512 24.0001 26.1787 24.0001 26.0032C24.0001 25.8276 23.9539 25.6552 23.8661 25.5031C22.8962 23.8374 21.4182 22.5262 19.6486 21.7619H19.6399Z" fill="url(#paint0_linear_2230_436)"/>
<defs>
<linearGradient id="paint0_linear_2230_436" x1="1.00183" y1="16.0001" x2="30.9981" y2="16.0001" gradientUnits="userSpaceOnUse">
<stop stop-color="#FC4A1A"/>
<stop offset="1" stop-color="#F7B733"/>
</linearGradient>
</defs>
</svg>
